STARTFONT 2.1
FONT -MLM-propell-Medium-R-Normal--20-200-75-75-P-110-koi8-1
SIZE 20 75 75
FONTBOUNDINGBOX 13 18 0 -4
STARTPROPERTIES 25
FONTNAME_REGISTRY ""
FOUNDRY "MLM"
FAMILY_NAME "propell"
WEIGHT_NAME "Medium"
SLANT "R"
SETWIDTH_NAME "Normal"
ADD_STYLE_NAME ""
PIXEL_SIZE 20
POINT_SIZE 200
RESOLUTION_X 75
RESOLUTION_Y 75
SPACING "P"
AVERAGE_WIDTH 110
CHARSET_REGISTRY "koi8"
CHARSET_ENCODING "1"
COPYRIGHT "Copyright 2002-2003 Maxim L. Markevitch"
ASSEMBLER "cvtbdf.pl (Linux)"
WEIGHT 10
RESOLUTION 103
X_HEIGHT 15
QUAD_WIDTH 11
FONT_ASCENT 15
FONT_DESCENT 5
_XMBDFED_INFO "Edited with xmbdfed 4.5."
COPYRIGHT2 ""
ENDPROPERTIES
CHARS 249
STARTCHAR char0
ENCODING 0
SWIDTH 528 0
DWIDTH 11 0
BBX 0 0 0 0
BITMAP
ENDCHAR
STARTCHAR char1
ENCODING 1
SWIDTH 528 0
DWIDTH 11 0
BBX 0 0 0 0
BITMAP
ENDCHAR
STARTCHAR char2
ENCODING 2
SWIDTH 528 0
DWIDTH 11 0
BBX 0 0 0 0
BITMAP
ENDCHAR
STARTCHAR char3
ENCODING 3
SWIDTH 528 0
DWIDTH 11 0
BBX 8 14 2 -1
BITMAP
CC
CC
CC
FC
CC
CC
CC
00
3F
0C
0C
0C
0C
0C
ENDCHAR
STARTCHAR char4
ENCODING 4
SWIDTH 528 0
DWIDTH 11 0
BBX 8 14 2 -1
BITMAP
F8
C0
C0
F0
C0
C0
C0
1F
18
18
1E
18
18
18
ENDCHAR
STARTCHAR char5
ENCODING 5
SWIDTH 528 0
DWIDTH 11 0
BBX 8 14 2 -1
BITMAP
7C
C0
C0
C0
C0
7C
00
3E
33
33
3E
3C
36
33
ENDCHAR
STARTCHAR char6
ENCODING 6
SWIDTH 528 0
DWIDTH 11 0
BBX 7 14 3 -1
BITMAP
C0
C0
C0
C0
C0
F8
00
3E
30
30
3C
30
30
30
ENDCHAR
STARTCHAR char7
ENCODING 7
SWIDTH 528 0
DWIDTH 11 0
BBX 6 5 3 8
BITMAP
78
CC
CC
CC
78
ENDCHAR
STARTCHAR char8
ENCODING 8
SWIDTH 528 0
DWIDTH 11 0
BBX 8 15 2 -2
BITMAP
F8
CC
CC
F8
CC
CC
F8
00
1F
30
30
1E
03
03
3E
ENDCHAR
STARTCHAR char9
ENCODING 9
SWIDTH 528 0
DWIDTH 11 0
BBX 8 14 2 -1
BITMAP
CC
EC
FC
DC
CC
CC
00
18
18
18
18
18
18
1F
ENDCHAR
STARTCHAR char10
ENCODING 10
SWIDTH 528 0
DWIDTH 11 0
BBX 8 14 2 -1
BITMAP
CC
CC
CC
78
78
30
30
00
3F
0C
0C
0C
0C
0C
ENDCHAR
STARTCHAR char11
ENCODING 11
SWIDTH 528 0
DWIDTH 11 0
BBX 0 0 0 0
BITMAP
ENDCHAR
STARTCHAR char12
ENCODING 12
SWIDTH 528 0
DWIDTH 11 0
BBX 0 0 0 0
BITMAP
ENDCHAR
STARTCHAR char13
ENCODING 13
SWIDTH 528 0
DWIDTH 11 0
BBX 0 0 0 0
BITMAP
ENDCHAR
STARTCHAR char14
ENCODING 14
SWIDTH 528 0
DWIDTH 11 0
BBX 0 0 0 0
BITMAP
ENDCHAR
STARTCHAR char15
ENCODING 15
SWIDTH 528 0
DWIDTH 11 0
BBX 0 0 0 0
BITMAP
ENDCHAR
STARTCHAR char16
ENCODING 16
SWIDTH 528 0
DWIDTH 11 0
BBX 0 0 0 0
BITMAP
ENDCHAR
STARTCHAR char17
ENCODING 17
SWIDTH 528 0
DWIDTH 11 0
BBX 0 0 0 0
BITMAP
ENDCHAR
STARTCHAR char18
ENCODING 18
SWIDTH 528 0
DWIDTH 11 0
BBX 0 0 0 0
BITMAP
ENDCHAR
STARTCHAR char19
ENCODING 19
SWIDTH 528 0
DWIDTH 11 0
BBX 0 0 0 0
BITMAP
ENDCHAR
STARTCHAR char20
ENCODING 20
SWIDTH 528 0
DWIDTH 11 0
BBX 0 0 0 0
BITMAP
ENDCHAR
STARTCHAR char21
ENCODING 21
SWIDTH 528 0
DWIDTH 11 0
BBX 0 0 0 0
BITMAP
ENDCHAR
STARTCHAR char22
ENCODING 22
SWIDTH 528 0
DWIDTH 11 0
BBX 0 0 0 0
BITMAP
ENDCHAR
STARTCHAR char23
ENCODING 23
SWIDTH 528 0
DWIDTH 11 0
BBX 0 0 0 0
BITMAP
ENDCHAR
STARTCHAR char24
ENCODING 24
SWIDTH 528 0
DWIDTH 11 0
BBX 0 0 0 0
BITMAP
ENDCHAR
STARTCHAR char25
ENCODING 25
SWIDTH 528 0
DWIDTH 11 0
BBX 0 0 0 0
BITMAP
ENDCHAR
STARTCHAR char26
ENCODING 26
SWIDTH 528 0
DWIDTH 11 0
BBX 0 0 0 0
BITMAP
ENDCHAR
STARTCHAR char27
ENCODING 27
SWIDTH 528 0
DWIDTH 11 0
BBX 0 0 0 0
BITMAP
ENDCHAR
STARTCHAR char28
ENCODING 28
SWIDTH 528 0
DWIDTH 11 0
BBX 0 0 0 0
BITMAP
ENDCHAR
STARTCHAR char29
ENCODING 29
SWIDTH 528 0
DWIDTH 11 0
BBX 0 0 0 0
BITMAP
ENDCHAR
STARTCHAR char30
ENCODING 30
SWIDTH 528 0
DWIDTH 11 0
BBX 0 0 0 0
BITMAP
ENDCHAR
STARTCHAR char31
ENCODING 31
SWIDTH 528 0
DWIDTH 11 0
BBX 0 0 0 0
BITMAP
ENDCHAR
STARTCHAR char32
ENCODING 32
SWIDTH 480 0
DWIDTH 10 0
BBX 0 0 0 0
BITMAP
ENDCHAR
STARTCHAR char33
ENCODING 33
SWIDTH 432 0
DWIDTH 9 0
BBX 2 14 4 0
BITMAP
C0
C0
C0
C0
C0
C0
C0
C0
C0
C0
00
00
C0
C0
ENDCHAR
STARTCHAR char34
ENCODING 34
SWIDTH 528 0
DWIDTH 11 0
BBX 4 7 4 6
BITMAP
90
90
90
90
90
90
90
ENDCHAR
STARTCHAR char35
ENCODING 35
SWIDTH 528 0
DWIDTH 11 0
BBX 8 15 2 -2
BITMAP
24
24
24
24
FF
24
24
24
24
24
FF
24
24
24
24
ENDCHAR
STARTCHAR char36
ENCODING 36
SWIDTH 528 0
DWIDTH 11 0
BBX 7 17 2 -3
BITMAP
10
10
3C
52
92
90
90
7C
12
12
12
92
94
78
10
10
10
ENDCHAR
STARTCHAR char37
ENCODING 37
SWIDTH 528 0
DWIDTH 11 0
BBX 9 13 1 -1
BITMAP
7000
8800
8880
8900
7200
0400
0800
1000
2700
4880
8880
0880
0700
ENDCHAR
STARTCHAR char38
ENCODING 38
SWIDTH 576 0
DWIDTH 12 0
BBX 9 12 2 0
BITMAP
1E00
2000
4000
4000
4000
2000
3080
4900
8600
8600
8900
7080
ENDCHAR
STARTCHAR char39
ENCODING 39
SWIDTH 528 0
DWIDTH 11 0
BBX 4 7 4 6
BITMAP
30
30
30
30
20
40
80
ENDCHAR
STARTCHAR char40
ENCODING 40
SWIDTH 528 0
DWIDTH 11 0
BBX 4 17 4 -3
BITMAP
10
30
60
60
C0
C0
C0
C0
C0
C0
C0
C0
C0
60
60
30
10
ENDCHAR
STARTCHAR char41
ENCODING 41
SWIDTH 528 0
DWIDTH 11 0
BBX 4 17 3 -3
BITMAP
80
C0
60
60
30
30
30
30
30
30
30
30
30
60
60
C0
80
ENDCHAR
STARTCHAR char42
ENCODING 42
SWIDTH 576 0
DWIDTH 12 0
BBX 9 10 2 1
BITMAP
0800
0800
0800
C980
3E00
1C00
1C00
3600
2200
4100
ENDCHAR
STARTCHAR char43
ENCODING 43
SWIDTH 576 0
DWIDTH 12 0
BBX 9 9 2 1
BITMAP
0800
0800
0800
0800
FF80
0800
0800
0800
0800
ENDCHAR
STARTCHAR char44
ENCODING 44
SWIDTH 480 0
DWIDTH 10 0
BBX 4 6 3 -3
BITMAP
30
30
30
20
40
80
ENDCHAR
STARTCHAR char45
ENCODING 45
SWIDTH 528 0
DWIDTH 11 0
BBX 8 1 2 5
BITMAP
FF
ENDCHAR
STARTCHAR char46
ENCODING 46
SWIDTH 480 0
DWIDTH 10 0
BBX 2 3 4 0
BITMAP
C0
C0
C0
ENDCHAR
STARTCHAR char47
ENCODING 47
SWIDTH 528 0
DWIDTH 11 0
BBX 8 16 2 -2
BITMAP
01
01
02
02
04
04
08
08
10
10
20
20
40
40
80
80
ENDCHAR
STARTCHAR char48
ENCODING 48
SWIDTH 480 0
DWIDTH 10 0
BBX 7 13 2 0
BITMAP
7C
C6
C6
C6
C6
C6
C6
C6
C6
C6
C6
C6
7C
ENDCHAR
STARTCHAR char49
ENCODING 49
SWIDTH 480 0
DWIDTH 10 0
BBX 4 13 3 0
BITMAP
30
70
F0
30
30
30
30
30
30
30
30
30
30
ENDCHAR
STARTCHAR char50
ENCODING 50
SWIDTH 480 0
DWIDTH 10 0
BBX 7 13 2 0
BITMAP
7C
C6
C6
06
06
0C
18
30
60
C0
C0
C0
FE
ENDCHAR
STARTCHAR char51
ENCODING 51
SWIDTH 480 0
DWIDTH 10 0
BBX 7 13 2 0
BITMAP
FE
06
0C
18
30
7C
06
06
06
06
C6
CC
78
ENDCHAR
STARTCHAR char52
ENCODING 52
SWIDTH 480 0
DWIDTH 10 0
BBX 9 13 1 0
BITMAP
0E00
0E00
1E00
1600
3600
2600
6600
4600
C600
FF80
0600
0600
0600
ENDCHAR
STARTCHAR char53
ENCODING 53
SWIDTH 480 0
DWIDTH 10 0
BBX 7 13 2 0
BITMAP
FE
C0
C0
C0
C0
FC
06
06
06
06
C6
CC
78
ENDCHAR
STARTCHAR char54
ENCODING 54
SWIDTH 480 0
DWIDTH 10 0
BBX 7 13 2 0
BITMAP
3C
66
C6
C0
C0
FC
C6
C6
C6
C6
C6
CC
78
ENDCHAR
STARTCHAR char55
ENCODING 55
SWIDTH 480 0
DWIDTH 10 0
BBX 7 13 2 0
BITMAP
FE
06
06
06
06
0C
0C
18
18
30
30
60
60
ENDCHAR
STARTCHAR char56
ENCODING 56
SWIDTH 480 0
DWIDTH 10 0
BBX 7 13 2 0
BITMAP
7C
C6
C6
C6
C6
7C
C6
C6
C6
C6
C6
C6
7C
ENDCHAR
STARTCHAR char57
ENCODING 57
SWIDTH 480 0
DWIDTH 10 0
BBX 7 13 2 0
BITMAP
3C
66
C6
C6
C6
C6
7E
06
06
06
C6
CC
78
ENDCHAR
STARTCHAR char58
ENCODING 58
SWIDTH 432 0
DWIDTH 9 0
BBX 2 9 4 0
BITMAP
C0
C0
00
00
00
00
00
C0
C0
ENDCHAR
STARTCHAR char59
ENCODING 59
SWIDTH 480 0
DWIDTH 10 0
BBX 4 12 3 -3
BITMAP
30
30
00
00
00
00
30
30
30
20
40
80
ENDCHAR
STARTCHAR char60
ENCODING 60
SWIDTH 576 0
DWIDTH 12 0
BBX 9 7 2 2
BITMAP
0380
0E00
3800
E000
3800
0E00
0380
ENDCHAR
STARTCHAR char61
ENCODING 61
SWIDTH 528 0
DWIDTH 11 0
BBX 8 5 2 3
BITMAP
FF
00
00
00
FF
ENDCHAR
STARTCHAR char62
ENCODING 62
SWIDTH 576 0
DWIDTH 12 0
BBX 9 7 2 2
BITMAP
E000
3800
0E00
0380
0E00
3800
E000
ENDCHAR
STARTCHAR char63
ENCODING 63
SWIDTH 528 0
DWIDTH 11 0
BBX 8 13 2 0
BITMAP
7E
C3
C3
03
06
0C
18
18
18
00
00
18
18
ENDCHAR
STARTCHAR char64
ENCODING 64
SWIDTH 528 0
DWIDTH 11 0
BBX 8 13 2 -1
BITMAP
3E
41
81
8F
91
91
91
91
91
8F
80
40
3F
ENDCHAR
STARTCHAR char65
ENCODING 65
SWIDTH 528 0
DWIDTH 11 0
BBX 8 12 2 0
BITMAP
3E
63
C3
C3
C3
C3
FF
C3
C3
C3
C3
C3
ENDCHAR
STARTCHAR char66
ENCODING 66
SWIDTH 528 0
DWIDTH 11 0
BBX 8 12 2 0
BITMAP
FE
C3
C3
C3
C3
FE
C3
C3
C3
C3
C6
FC
ENDCHAR
STARTCHAR char67
ENCODING 67
SWIDTH 528 0
DWIDTH 11 0
BBX 8 12 2 0
BITMAP
3E
63
C3
C0
C0
C0
C0
C0
C3
C3
C6
7C
ENDCHAR
STARTCHAR char68
ENCODING 68
SWIDTH 528 0
DWIDTH 11 0
BBX 8 12 2 0
BITMAP
FE
C3
C3
C3
C3
C3
C3
C3
C3
C3
C6
FC
ENDCHAR
STARTCHAR char69
ENCODING 69
SWIDTH 528 0
DWIDTH 11 0
BBX 8 12 2 0
BITMAP
FF
C0
C0
C0
C0
FE
C0
C0
C0
C0
C0
FF
ENDCHAR
STARTCHAR char70
ENCODING 70
SWIDTH 528 0
DWIDTH 11 0
BBX 8 12 2 0
BITMAP
FF
C0
C0
C0
C0
FE
C0
C0
C0
C0
C0
C0
ENDCHAR
STARTCHAR char71
ENCODING 71
SWIDTH 528 0
DWIDTH 11 0
BBX 8 12 2 0
BITMAP
3E
63
C3
C0
C0
C0
CF
C3
C3
C3
C3
7F
ENDCHAR
STARTCHAR char72
ENCODING 72
SWIDTH 528 0
DWIDTH 11 0
BBX 8 12 2 0
BITMAP
C3
C3
C3
C3
C3
FF
C3
C3
C3
C3
C3
C3
ENDCHAR
STARTCHAR char73
ENCODING 73
SWIDTH 528 0
DWIDTH 11 0
BBX 8 12 2 0
BITMAP
FF
18
18
18
18
18
18
18
18
18
18
FF
ENDCHAR
STARTCHAR char74
ENCODING 74
SWIDTH 528 0
DWIDTH 11 0
BBX 8 12 2 0
BITMAP
3F
03
03
03
03
03
03
03
03
C3
C6
7C
ENDCHAR
STARTCHAR char75
ENCODING 75
SWIDTH 576 0
DWIDTH 12 0
BBX 9 12 2 0
BITMAP
C300
C600
CC00
D800
F000
F000
D800
CC00
C600
C300
C180
C080
ENDCHAR
STARTCHAR char76
ENCODING 76
SWIDTH 528 0
DWIDTH 11 0
BBX 8 12 2 0
BITMAP
C0
C0
C0
C0
C0
C0
C0
C0
C0
C0
C0
FF
ENDCHAR
STARTCHAR char77
ENCODING 77
SWIDTH 576 0
DWIDTH 12 0
BBX 9 12 2 0
BITMAP
C180
C180
E380
E380
D580
D580
C980
C980
C980
C180
C180
C180
ENDCHAR
STARTCHAR char78
ENCODING 78
SWIDTH 528 0
DWIDTH 11 0
BBX 8 12 2 0
BITMAP
C3
C3
E3
E3
D3
D3
CB
CB
C7
C7
C3
C3
ENDCHAR
STARTCHAR char79
ENCODING 79
SWIDTH 528 0
DWIDTH 11 0
BBX 8 12 2 0
BITMAP
3E
63
C3
C3
C3
C3
C3
C3
C3
C3
C6
7C
ENDCHAR
STARTCHAR char80
ENCODING 80
SWIDTH 528 0
DWIDTH 11 0
BBX 8 12 2 0
BITMAP
FE
C3
C3
C3
C6
FC
C0
C0
C0
C0
C0
C0
ENDCHAR
STARTCHAR char81
ENCODING 81
SWIDTH 528 0
DWIDTH 11 0
BBX 9 15 2 -3
BITMAP
3E00
6300
C300
C300
C300
C300
C300
C300
C300
C300
C600
7C00
3800
4C80
0700
ENDCHAR
STARTCHAR char82
ENCODING 82
SWIDTH 576 0
DWIDTH 12 0
BBX 9 12 2 0
BITMAP
FE00
C300
C300
C300
C600
FC00
D800
CC00
C600
C300
C180
C080
ENDCHAR
STARTCHAR char83
ENCODING 83
SWIDTH 528 0
DWIDTH 11 0
BBX 8 12 2 0
BITMAP
3E
63
C3
C0
C0
7E
03
03
03
C3
C6
7C
ENDCHAR
STARTCHAR char84
ENCODING 84
SWIDTH 528 0
DWIDTH 11 0
BBX 8 12 2 0
BITMAP
FF
18
18
18
18
18
18
18
18
18
18
18
ENDCHAR
STARTCHAR char85
ENCODING 85
SWIDTH 528 0
DWIDTH 11 0
BBX 8 12 2 0
BITMAP
C3
C3
C3
C3
C3
C3
C3
C3
C3
C3
C3
7E
ENDCHAR
STARTCHAR char86
ENCODING 86
SWIDTH 528 0
DWIDTH 11 0
BBX 9 12 1 0
BITMAP
C180
C180
C180
6300
6300
6300
3600
3600
3600
1C00
1C00
1C00
ENDCHAR
STARTCHAR char87
ENCODING 87
SWIDTH 576 0
DWIDTH 12 0
BBX 9 12 2 0
BITMAP
C180
C180
C180
C980
C980
C980
D580
D580
E380
E380
C180
C180
ENDCHAR
STARTCHAR char88
ENCODING 88
SWIDTH 528 0
DWIDTH 11 0
BBX 8 12 2 0
BITMAP
C3
C3
C3
66
3C
18
3C
66
C3
C3
C3
C3
ENDCHAR
STARTCHAR char89
ENCODING 89
SWIDTH 528 0
DWIDTH 11 0
BBX 8 12 2 0
BITMAP
C3
C3
C3
66
3C
18
18
18
18
18
18
18
ENDCHAR
STARTCHAR char90
ENCODING 90
SWIDTH 528 0
DWIDTH 11 0
BBX 8 12 2 0
BITMAP
FF
06
06
0C
0C
18
18
30
30
60
60
FF
ENDCHAR
STARTCHAR char91
ENCODING 91
SWIDTH 528 0
DWIDTH 11 0
BBX 5 15 4 -2
BITMAP
F8
C0
C0
C0
C0
C0
C0
C0
C0
C0
C0
C0
C0
C0
F8
ENDCHAR
STARTCHAR char92
ENCODING 92
SWIDTH 528 0
DWIDTH 11 0
BBX 8 16 2 -2
BITMAP
80
80
40
40
20
20
10
10
08
08
04
04
02
02
01
01
ENDCHAR
STARTCHAR char93
ENCODING 93
SWIDTH 528 0
DWIDTH 11 0
BBX 5 15 3 -2
BITMAP
F8
18
18
18
18
18
18
18
18
18
18
18
18
18
F8
ENDCHAR
STARTCHAR char94
ENCODING 94
SWIDTH 576 0
DWIDTH 12 0
BBX 9 6 2 7
BITMAP
0800
1C00
3600
6300
C180
8080
ENDCHAR
STARTCHAR char95
ENCODING 95
SWIDTH 528 0
DWIDTH 11 0
BBX 9 1 1 -3
BITMAP
FF80
ENDCHAR
STARTCHAR char96
ENCODING 96
SWIDTH 528 0
DWIDTH 11 0
BBX 4 7 4 6
BITMAP
C0
C0
C0
C0
40
20
10
ENDCHAR
STARTCHAR char97
ENCODING 97
SWIDTH 528 0
DWIDTH 11 0
BBX 8 9 2 0
BITMAP
3F
63
C3
C3
C3
C3
C7
CB
73
ENDCHAR
STARTCHAR char98
ENCODING 98
SWIDTH 528 0
DWIDTH 11 0
BBX 8 13 2 0
BITMAP
C0
C0
C0
C0
DE
E3
C3
C3
C3
C3
C3
C6
FC
ENDCHAR
STARTCHAR char99
ENCODING 99
SWIDTH 528 0
DWIDTH 11 0
BBX 7 9 2 0
BITMAP
7E
C0
C0
C0
C0
C0
C0
C0
7E
ENDCHAR
STARTCHAR char100
ENCODING 100
SWIDTH 528 0
DWIDTH 11 0
BBX 8 13 2 0
BITMAP
03
03
03
03
3F
63
C3
C3
C3
C3
C7
CB
73
ENDCHAR
STARTCHAR char101
ENCODING 101
SWIDTH 528 0
DWIDTH 11 0
BBX 8 9 2 0
BITMAP
7E
C3
C3
FF
C0
C0
C0
C0
7E
ENDCHAR
STARTCHAR char102
ENCODING 102
SWIDTH 528 0
DWIDTH 11 0
BBX 8 14 2 -1
BITMAP
1F
30
30
30
FE
30
30
30
30
30
30
30
30
20
ENDCHAR
STARTCHAR char103
ENCODING 103
SWIDTH 528 0
DWIDTH 11 0
BBX 8 13 2 -4
BITMAP
3F
63
C3
C3
C3
C3
C7
CB
73
03
03
03
7E
ENDCHAR
STARTCHAR char104
ENCODING 104
SWIDTH 528 0
DWIDTH 11 0
BBX 8 13 2 0
BITMAP
C0
C0
C0
C0
CE
D3
E3
C3
C3
C3
C3
C3
C3
ENDCHAR
STARTCHAR char105
ENCODING 105
SWIDTH 528 0
DWIDTH 11 0
BBX 8 13 2 0
BITMAP
18
18
00
00
F8
18
18
18
18
18
18
18
FF
ENDCHAR
STARTCHAR char106
ENCODING 106
SWIDTH 480 0
DWIDTH 10 0
BBX 6 17 2 -4
BITMAP
0C
0C
00
00
7C
0C
0C
0C
0C
0C
0C
0C
0C
0C
0C
18
F0
ENDCHAR
STARTCHAR char107
ENCODING 107
SWIDTH 528 0
DWIDTH 11 0
BBX 8 13 2 0
BITMAP
C0
C0
C0
C0
C3
C6
CC
D8
F0
D8
CC
C6
C3
ENDCHAR
STARTCHAR char108
ENCODING 108
SWIDTH 528 0
DWIDTH 11 0
BBX 8 13 2 0
BITMAP
78
18
18
18
18
18
18
18
18
18
18
18
FF
ENDCHAR
STARTCHAR char109
ENCODING 109
SWIDTH 576 0
DWIDTH 12 0
BBX 9 9 2 0
BITMAP
F700
C980
C980
C980
C980
C980
C980
C180
C180
ENDCHAR
STARTCHAR char110
ENCODING 110
SWIDTH 528 0
DWIDTH 11 0
BBX 8 9 2 0
BITMAP
CE
D3
E3
C3
C3
C3
C3
C3
C3
ENDCHAR
STARTCHAR char111
ENCODING 111
SWIDTH 528 0
DWIDTH 11 0
BBX 8 9 2 0
BITMAP
7E
C3
C3
C3
C3
C3
C3
C3
7E
ENDCHAR
STARTCHAR char112
ENCODING 112
SWIDTH 528 0
DWIDTH 11 0
BBX 8 13 2 -4
BITMAP
FE
C3
C3
C3
C3
C3
C3
C6
FC
C0
C0
C0
C0
ENDCHAR
STARTCHAR char113
ENCODING 113
SWIDTH 528 0
DWIDTH 11 0
BBX 8 13 2 -4
BITMAP
3F
63
C3
C3
C3
C3
C7
CB
73
03
03
03
03
ENDCHAR
STARTCHAR char114
ENCODING 114
SWIDTH 480 0
DWIDTH 10 0
BBX 7 9 2 0
BITMAP
CE
D0
E0
C0
C0
C0
C0
C0
C0
ENDCHAR
STARTCHAR char115
ENCODING 115
SWIDTH 528 0
DWIDTH 11 0
BBX 7 9 2 0
BITMAP
7E
C0
C0
C0
7C
06
06
06
FC
ENDCHAR
STARTCHAR char116
ENCODING 116
SWIDTH 480 0
DWIDTH 10 0
BBX 7 12 2 0
BITMAP
30
30
30
FE
30
30
30
30
30
30
30
1E
ENDCHAR
STARTCHAR char117
ENCODING 117
SWIDTH 528 0
DWIDTH 11 0
BBX 8 9 2 0
BITMAP
C3
C3
C3
C3
C3
C3
C7
CB
73
ENDCHAR
STARTCHAR char118
ENCODING 118
SWIDTH 528 0
DWIDTH 11 0
BBX 8 9 2 0
BITMAP
C3
C3
C3
62
66
34
3C
18
18
ENDCHAR
STARTCHAR char119
ENCODING 119
SWIDTH 576 0
DWIDTH 12 0
BBX 9 9 2 0
BITMAP
C180
C180
C980
C980
C980
C980
C980
C980
7700
ENDCHAR
STARTCHAR char120
ENCODING 120
SWIDTH 528 0
DWIDTH 11 0
BBX 8 9 2 0
BITMAP
C3
C3
66
3C
18
3C
66
C3
C3
ENDCHAR
STARTCHAR char121
ENCODING 121
SWIDTH 528 0
DWIDTH 11 0
BBX 8 13 2 -4
BITMAP
C3
C3
C3
C3
C3
C3
C7
CB
73
03
03
03
7E
ENDCHAR
STARTCHAR char122
ENCODING 122
SWIDTH 528 0
DWIDTH 11 0
BBX 8 9 2 0
BITMAP
FF
03
06
0C
18
30
60
C0
FF
ENDCHAR
STARTCHAR char123
ENCODING 123
SWIDTH 528 0
DWIDTH 11 0
BBX 6 17 3 -3
BITMAP
1C
30
30
30
30
30
30
30
E0
30
30
30
30
30
30
30
1C
ENDCHAR
STARTCHAR char124
ENCODING 124
SWIDTH 528 0
DWIDTH 11 0
BBX 1 17 5 -3
BITMAP
80
80
80
80
80
80
80
80
80
80
80
80
80
80
80
80
80
ENDCHAR
STARTCHAR char125
ENCODING 125
SWIDTH 528 0
DWIDTH 11 0
BBX 6 17 3 -3
BITMAP
E0
30
30
30
30
30
30
30
1C
30
30
30
30
30
30
30
E0
ENDCHAR
STARTCHAR char126
ENCODING 126
SWIDTH 576 0
DWIDTH 12 0
BBX 9 4 2 7
BITMAP
3080
5880
8D00
8600
ENDCHAR
STARTCHAR char127
ENCODING 127
SWIDTH 528 0
DWIDTH 11 0
BBX 0 0 0 0
BITMAP
ENDCHAR
STARTCHAR char128
ENCODING 128
SWIDTH 528 0
DWIDTH 11 0
BBX 8 11 2 0
BITMAP
0F
10
20
20
FE
20
FC
20
20
21
1E
ENDCHAR
STARTCHAR char129
ENCODING 129
SWIDTH 528 0
DWIDTH 11 0
BBX 0 0 0 0
BITMAP
ENDCHAR
STARTCHAR char130
ENCODING 130
SWIDTH 528 0
DWIDTH 11 0
BBX 0 0 0 0
BITMAP
ENDCHAR
STARTCHAR char131
ENCODING 131
SWIDTH 528 0
DWIDTH 11 0
BBX 0 0 0 0
BITMAP
ENDCHAR
STARTCHAR char132
ENCODING 132
SWIDTH 528 0
DWIDTH 11 0
BBX 0 0 0 0
BITMAP
ENDCHAR
STARTCHAR char133
ENCODING 133
SWIDTH 528 0
DWIDTH 11 0
BBX 0 0 0 0
BITMAP
ENDCHAR
STARTCHAR char134
ENCODING 134
SWIDTH 528 0
DWIDTH 11 0
BBX 0 0 0 0
BITMAP
ENDCHAR
STARTCHAR char135
ENCODING 135
SWIDTH 528 0
DWIDTH 11 0
BBX 0 0 0 0
BITMAP
ENDCHAR
STARTCHAR char136
ENCODING 136
SWIDTH 528 0
DWIDTH 11 0
BBX 0 0 0 0
BITMAP
ENDCHAR
STARTCHAR char137
ENCODING 137
SWIDTH 528 0
DWIDTH 11 0
BBX 0 0 0 0
BITMAP
ENDCHAR
STARTCHAR char139
ENCODING 139
SWIDTH 528 0
DWIDTH 11 0
BBX 0 0 0 0
BITMAP
ENDCHAR
STARTCHAR char143
ENCODING 143
SWIDTH 528 0
DWIDTH 11 0
BBX 0 0 0 0
BITMAP
ENDCHAR
STARTCHAR char144
ENCODING 144
SWIDTH 528 0
DWIDTH 11 0
BBX 0 0 0 0
BITMAP
ENDCHAR
STARTCHAR char145
ENCODING 145
SWIDTH 528 0
DWIDTH 11 0
BBX 0 0 0 0
BITMAP
ENDCHAR
STARTCHAR char146
ENCODING 146
SWIDTH 528 0
DWIDTH 11 0
BBX 0 0 0 0
BITMAP
ENDCHAR
STARTCHAR char147
ENCODING 147
SWIDTH 528 0
DWIDTH 11 0
BBX 0 0 0 0
BITMAP
ENDCHAR
STARTCHAR char148
ENCODING 148
SWIDTH 528 0
DWIDTH 11 0
BBX 0 0 0 0
BITMAP
ENDCHAR
STARTCHAR char149
ENCODING 149
SWIDTH 528 0
DWIDTH 11 0
BBX 0 0 0 0
BITMAP
ENDCHAR
STARTCHAR char150
ENCODING 150
SWIDTH 528 0
DWIDTH 11 0
BBX 9 1 1 5
BITMAP
FF80
ENDCHAR
STARTCHAR char151
ENCODING 151
SWIDTH 528 0
DWIDTH 11 0
BBX 0 0 0 0
BITMAP
ENDCHAR
STARTCHAR char152
ENCODING 152
SWIDTH 528 0
DWIDTH 11 0
BBX 0 0 0 0
BITMAP
ENDCHAR
STARTCHAR char153
ENCODING 153
SWIDTH 528 0
DWIDTH 11 0
BBX 0 0 0 0
BITMAP
ENDCHAR
STARTCHAR char154
ENCODING 154
SWIDTH 528 0
DWIDTH 11 0
BBX 0 0 0 0
BITMAP
ENDCHAR
STARTCHAR char155
ENCODING 155
SWIDTH 528 0
DWIDTH 11 0
BBX 0 0 0 0
BITMAP
ENDCHAR
STARTCHAR char159
ENCODING 159
SWIDTH 528 0
DWIDTH 11 0
BBX 0 0 0 0
BITMAP
ENDCHAR
STARTCHAR char160
ENCODING 160
SWIDTH 528 0
DWIDTH 11 0
BBX 0 0 0 0
BITMAP
ENDCHAR
STARTCHAR char161
ENCODING 161
SWIDTH 528 0
DWIDTH 11 0
BBX 0 0 0 0
BITMAP
ENDCHAR
STARTCHAR char162
ENCODING 162
SWIDTH 528 0
DWIDTH 11 0
BBX 0 0 0 0
BITMAP
ENDCHAR
STARTCHAR char163
ENCODING 163
SWIDTH 528 0
DWIDTH 11 0
BBX 8 12 2 0
BITMAP
66
66
00
3C
66
C3
FF
C0
C0
C0
63
3E
ENDCHAR
STARTCHAR char164
ENCODING 164
SWIDTH 528 0
DWIDTH 11 0
BBX 0 0 0 0
BITMAP
ENDCHAR
STARTCHAR char165
ENCODING 165
SWIDTH 528 0
DWIDTH 11 0
BBX 0 0 0 0
BITMAP
ENDCHAR
STARTCHAR char166
ENCODING 166
SWIDTH 528 0
DWIDTH 11 0
BBX 0 0 0 0
BITMAP
ENDCHAR
STARTCHAR char167
ENCODING 167
SWIDTH 528 0
DWIDTH 11 0
BBX 7 13 2 0
BITMAP
7C
C6
C0
60
78
CC
C6
66
3C
0C
06
C6
7C
ENDCHAR
STARTCHAR char168
ENCODING 168
SWIDTH 528 0
DWIDTH 11 0
BBX 0 0 0 0
BITMAP
ENDCHAR
STARTCHAR char169
ENCODING 169
SWIDTH 528 0
DWIDTH 11 0
BBX 0 0 0 0
BITMAP
ENDCHAR
STARTCHAR char170
ENCODING 170
SWIDTH 528 0
DWIDTH 11 0
BBX 0 0 0 0
BITMAP
ENDCHAR
STARTCHAR char171
ENCODING 171
SWIDTH 528 0
DWIDTH 11 0
BBX 10 9 1 1
BITMAP
0CC0
1980
3300
6600
CC00
6600
3300
1980
0CC0
ENDCHAR
STARTCHAR char172
ENCODING 172
SWIDTH 528 0
DWIDTH 11 0
BBX 0 0 0 0
BITMAP
ENDCHAR
STARTCHAR char173
ENCODING 173
SWIDTH 528 0
DWIDTH 11 0
BBX 0 0 0 0
BITMAP
ENDCHAR
STARTCHAR char174
ENCODING 174
SWIDTH 528 0
DWIDTH 11 0
BBX 0 0 0 0
BITMAP
ENDCHAR
STARTCHAR char175
ENCODING 175
SWIDTH 528 0
DWIDTH 11 0
BBX 0 0 0 0
BITMAP
ENDCHAR
STARTCHAR char176
ENCODING 176
SWIDTH 528 0
DWIDTH 11 0
BBX 0 0 0 0
BITMAP
ENDCHAR
STARTCHAR char177
ENCODING 177
SWIDTH 528 0
DWIDTH 11 0
BBX 0 0 0 0
BITMAP
ENDCHAR
STARTCHAR char178
ENCODING 178
SWIDTH 528 0
DWIDTH 11 0
BBX 0 0 0 0
BITMAP
ENDCHAR
STARTCHAR char179
ENCODING 179
SWIDTH 528 0
DWIDTH 11 0
BBX 8 14 2 0
BITMAP
66
66
00
FF
C0
C0
C0
FC
C0
C0
C0
C0
C0
FF
ENDCHAR
STARTCHAR char180
ENCODING 180
SWIDTH 528 0
DWIDTH 11 0
BBX 0 0 0 0
BITMAP
ENDCHAR
STARTCHAR char181
ENCODING 181
SWIDTH 528 0
DWIDTH 11 0
BBX 0 0 0 0
BITMAP
ENDCHAR
STARTCHAR char182
ENCODING 182
SWIDTH 528 0
DWIDTH 11 0
BBX 0 0 0 0
BITMAP
ENDCHAR
STARTCHAR char183
ENCODING 183
SWIDTH 528 0
DWIDTH 11 0
BBX 0 0 0 0
BITMAP
ENDCHAR
STARTCHAR char184
ENCODING 184
SWIDTH 528 0
DWIDTH 11 0
BBX 0 0 0 0
BITMAP
ENDCHAR
STARTCHAR char185
ENCODING 185
SWIDTH 528 0
DWIDTH 11 0
BBX 8 12 2 0
BITMAP
E3
E3
E3
D3
D3
D3
CB
CB
CB
C7
C7
C7
ENDCHAR
STARTCHAR char186
ENCODING 186
SWIDTH 528 0
DWIDTH 11 0
BBX 0 0 0 0
BITMAP
ENDCHAR
STARTCHAR char187
ENCODING 187
SWIDTH 528 0
DWIDTH 11 0
BBX 10 9 1 1
BITMAP
CC00
6600
3300
1980
0CC0
1980
3300
6600
CC00
ENDCHAR
STARTCHAR char188
ENCODING 188
SWIDTH 528 0
DWIDTH 11 0
BBX 0 0 0 0
BITMAP
ENDCHAR
STARTCHAR char189
ENCODING 189
SWIDTH 528 0
DWIDTH 11 0
BBX 0 0 0 0
BITMAP
ENDCHAR
STARTCHAR char190
ENCODING 190
SWIDTH 528 0
DWIDTH 11 0
BBX 0 0 0 0
BITMAP
ENDCHAR
STARTCHAR char191
ENCODING 191
SWIDTH 528 0
DWIDTH 11 0
BBX 0 0 0 0
BITMAP
ENDCHAR
STARTCHAR char192
ENCODING 192
SWIDTH 672 0
DWIDTH 14 0
BBX 11 9 2 0
BITMAP
C380
C6C0
CC60
CC60
FC60
CC60
CC60
C6C0
C380
ENDCHAR
STARTCHAR char193
ENCODING 193
SWIDTH 528 0
DWIDTH 11 0
BBX 8 9 2 0
BITMAP
7E
03
03
7F
C3
C3
C3
C3
7F
ENDCHAR
STARTCHAR char194
ENCODING 194
SWIDTH 528 0
DWIDTH 11 0
BBX 8 12 2 0
BITMAP
3F
60
C0
DC
E6
C3
C3
C3
C3
C3
66
3C
ENDCHAR
STARTCHAR char195
ENCODING 195
SWIDTH 528 0
DWIDTH 11 0
BBX 9 11 2 -2
BITMAP
C300
C300
C300
C300
C300
C300
C300
C300
FF80
0180
0180
ENDCHAR
STARTCHAR char196
ENCODING 196
SWIDTH 528 0
DWIDTH 11 0
BBX 10 11 1 -2
BITMAP
3F80
3180
3180
3180
3180
3180
3180
6180
FFC0
C0C0
C0C0
ENDCHAR
STARTCHAR char197
ENCODING 197
SWIDTH 528 0
DWIDTH 11 0
BBX 8 9 2 0
BITMAP
3C
66
C3
FF
C0
C0
C0
63
3E
ENDCHAR
STARTCHAR char198
ENCODING 198
SWIDTH 624 0
DWIDTH 13 0
BBX 10 15 2 -4
BITMAP
0C00
0C00
7F80
CCC0
CCC0
CCC0
CCC0
CCC0
CCC0
CCC0
7F80
0C00
0C00
0C00
0C00
ENDCHAR
STARTCHAR char199
ENCODING 199
SWIDTH 528 0
DWIDTH 11 0
BBX 8 9 2 0
BITMAP
FF
C0
C0
C0
C0
C0
C0
C0
C0
ENDCHAR
STARTCHAR char200
ENCODING 200
SWIDTH 528 0
DWIDTH 11 0
BBX 8 9 2 0
BITMAP
C3
C3
66
3C
18
3C
66
C3
C3
ENDCHAR
STARTCHAR char201
ENCODING 201
SWIDTH 528 0
DWIDTH 11 0
BBX 8 9 2 0
BITMAP
C7
C7
CF
CB
DB
D3
F3
E3
E3
ENDCHAR
STARTCHAR char202
ENCODING 202
SWIDTH 528 0
DWIDTH 11 0
BBX 8 12 2 0
BITMAP
3C
00
00
C7
C7
CF
CB
DB
D3
F3
E3
E3
ENDCHAR
STARTCHAR char203
ENCODING 203
SWIDTH 528 0
DWIDTH 11 0
BBX 8 9 2 0
BITMAP
C3
C6
CC
D8
F0
D8
CC
C6
C3
ENDCHAR
STARTCHAR char204
ENCODING 204
SWIDTH 528 0
DWIDTH 11 0
BBX 9 9 1 0
BITMAP
3F80
3180
3180
3180
3180
3180
3180
3180
E180
ENDCHAR
STARTCHAR char205
ENCODING 205
SWIDTH 576 0
DWIDTH 12 0
BBX 9 9 2 0
BITMAP
C180
C180
E380
E380
F780
B580
BD80
9980
9980
ENDCHAR
STARTCHAR char206
ENCODING 206
SWIDTH 528 0
DWIDTH 11 0
BBX 8 9 2 0
BITMAP
C3
C3
C3
FF
C3
C3
C3
C3
C3
ENDCHAR
STARTCHAR char207
ENCODING 207
SWIDTH 528 0
DWIDTH 11 0
BBX 8 9 2 0
BITMAP
3C
66
C3
C3
C3
C3
C3
66
3C
ENDCHAR
STARTCHAR char208
ENCODING 208
SWIDTH 528 0
DWIDTH 11 0
BBX 8 9 2 0
BITMAP
FF
C3
C3
C3
C3
C3
C3
C3
C3
ENDCHAR
STARTCHAR char209
ENCODING 209
SWIDTH 528 0
DWIDTH 11 0
BBX 8 9 2 0
BITMAP
7F
C3
C3
C3
7F
1B
33
63
C3
ENDCHAR
STARTCHAR char210
ENCODING 210
SWIDTH 528 0
DWIDTH 11 0
BBX 8 13 2 -4
BITMAP
DC
E6
C3
C3
C3
C3
C3
E6
DC
C0
C0
C0
C0
ENDCHAR
STARTCHAR char211
ENCODING 211
SWIDTH 528 0
DWIDTH 11 0
BBX 8 9 2 0
BITMAP
3E
63
C0
C0
C0
C0
C0
63
3E
ENDCHAR
STARTCHAR char212
ENCODING 212
SWIDTH 528 0
DWIDTH 11 0
BBX 8 9 2 0
BITMAP
FF
18
18
18
18
18
18
18
18
ENDCHAR
STARTCHAR char213
ENCODING 213
SWIDTH 528 0
DWIDTH 11 0
BBX 9 13 1 -4
BITMAP
C180
C180
6100
6300
3300
3200
1E00
1E00
0C00
0C00
0C00
1800
F000
ENDCHAR
STARTCHAR char214
ENCODING 214
SWIDTH 624 0
DWIDTH 13 0
BBX 10 9 2 0
BITMAP
CCC0
CCC0
6D80
6D80
3F00
6D80
6D80
CCC0
CCC0
ENDCHAR
STARTCHAR char215
ENCODING 215
SWIDTH 528 0
DWIDTH 11 0
BBX 8 9 2 0
BITMAP
FE
C3
C3
C3
FE
C3
C3
C3
FE
ENDCHAR
STARTCHAR char216
ENCODING 216
SWIDTH 528 0
DWIDTH 11 0
BBX 8 9 2 0
BITMAP
C0
C0
C0
FE
C3
C3
C3
C3
FE
ENDCHAR
STARTCHAR char217
ENCODING 217
SWIDTH 672 0
DWIDTH 14 0
BBX 11 9 2 0
BITMAP
C060
C060
C060
FC60
C660
C660
C660
C660
FC60
ENDCHAR
STARTCHAR char218
ENCODING 218
SWIDTH 528 0
DWIDTH 11 0
BBX 8 9 2 0
BITMAP
7E
C3
03
03
1E
03
03
C3
7E
ENDCHAR
STARTCHAR char219
ENCODING 219
SWIDTH 624 0
DWIDTH 13 0
BBX 10 9 2 0
BITMAP
CCC0
CCC0
CCC0
CCC0
CCC0
CCC0
CCC0
CCC0
FFC0
ENDCHAR
STARTCHAR char220
ENCODING 220
SWIDTH 528 0
DWIDTH 11 0
BBX 8 9 2 0
BITMAP
7C
C6
03
03
3F
03
03
C6
7C
ENDCHAR
STARTCHAR char221
ENCODING 221
SWIDTH 624 0
DWIDTH 13 0
BBX 11 11 2 -2
BITMAP
CCC0
CCC0
CCC0
CCC0
CCC0
CCC0
CCC0
CCC0
FFE0
0060
0060
ENDCHAR
STARTCHAR char222
ENCODING 222
SWIDTH 528 0
DWIDTH 11 0
BBX 8 9 2 0
BITMAP
C3
C3
C3
C3
7F
03
03
03
03
ENDCHAR
STARTCHAR char223
ENCODING 223
SWIDTH 528 0
DWIDTH 11 0
BBX 9 9 1 0
BITMAP
F000
3000
3000
3F00
3180
3180
3180
3180
3F00
ENDCHAR
STARTCHAR char224
ENCODING 224
SWIDTH 672 0
DWIDTH 14 0
BBX 11 12 2 0
BITMAP
C380
C6C0
CC60
CC60
CC60
FC60
CC60
CC60
CC60
CC60
C6C0
C380
ENDCHAR
STARTCHAR char225
ENCODING 225
SWIDTH 528 0
DWIDTH 11 0
BBX 10 12 1 0
BITMAP
0C00
0C00
1E00
1600
1600
3700
2300
2300
7F80
4180
4180
C1C0
ENDCHAR
STARTCHAR char226
ENCODING 226
SWIDTH 528 0
DWIDTH 11 0
BBX 8 12 2 0
BITMAP
FE
C0
C0
C0
FC
C6
C3
C3
C3
C3
C6
FC
ENDCHAR
STARTCHAR char227
ENCODING 227
SWIDTH 528 0
DWIDTH 11 0
BBX 9 14 2 -2
BITMAP
C300
C300
C300
C300
C300
C300
C300
C300
C300
C300
C300
FF80
0180
0180
ENDCHAR
STARTCHAR char228
ENCODING 228
SWIDTH 528 0
DWIDTH 11 0
BBX 10 14 1 -2
BITMAP
3F80
3180
3180
3180
3180
3180
3180
3180
3180
3180
6180
FFC0
C0C0
C0C0
ENDCHAR
STARTCHAR char229
ENCODING 229
SWIDTH 528 0
DWIDTH 11 0
BBX 8 12 2 0
BITMAP
FF
C0
C0
C0
FC
C0
C0
C0
C0
C0
C0
FF
ENDCHAR
STARTCHAR char230
ENCODING 230
SWIDTH 624 0
DWIDTH 13 0
BBX 10 12 2 0
BITMAP
0C00
0C00
7F80
CCC0
CCC0
CCC0
CCC0
CCC0
CCC0
7F80
0C00
0C00
ENDCHAR
STARTCHAR char231
ENCODING 231
SWIDTH 528 0
DWIDTH 11 0
BBX 8 12 3 0
BITMAP
FF
C0
C0
C0
C0
C0
C0
C0
C0
C0
C0
C0
ENDCHAR
STARTCHAR char232
ENCODING 232
SWIDTH 528 0
DWIDTH 11 0
BBX 8 12 2 0
BITMAP
C3
C2
66
64
3C
38
1C
3C
26
66
43
C3
ENDCHAR
STARTCHAR char233
ENCODING 233
SWIDTH 528 0
DWIDTH 11 0
BBX 8 12 2 0
BITMAP
C7
C7
C7
CB
CB
CB
D3
D3
D3
E3
E3
E3
ENDCHAR
STARTCHAR char234
ENCODING 234
SWIDTH 528 0
DWIDTH 11 0
BBX 8 14 2 0
BITMAP
3C
00
C7
C7
C7
CB
CB
CB
D3
D3
D3
E3
E3
E3
ENDCHAR
STARTCHAR char235
ENCODING 235
SWIDTH 528 0
DWIDTH 11 0
BBX 8 12 2 0
BITMAP
C3
C6
CC
D8
F8
D8
CC
CC
C6
C6
C3
C3
ENDCHAR
STARTCHAR char236
ENCODING 236
SWIDTH 528 0
DWIDTH 11 0
BBX 9 12 1 0
BITMAP
3F80
3180
3180
3180
3180
3180
3180
3180
3180
3180
3180
E180
ENDCHAR
STARTCHAR char237
ENCODING 237
SWIDTH 576 0
DWIDTH 12 0
BBX 9 12 2 0
BITMAP
C180
C180
C180
E380
E380
E380
B580
B580
B580
9980
9980
9980
ENDCHAR
STARTCHAR char238
ENCODING 238
SWIDTH 528 0
DWIDTH 11 0
BBX 8 12 2 0
BITMAP
C3
C3
C3
C3
FF
C3
C3
C3
C3
C3
C3
C3
ENDCHAR
STARTCHAR char239
ENCODING 239
SWIDTH 576 0
DWIDTH 12 0
BBX 9 12 2 0
BITMAP
3E00
6300
C180
C180
C180
C180
C180
C180
C180
C180
6300
3E00
ENDCHAR
STARTCHAR char240
ENCODING 240
SWIDTH 528 0
DWIDTH 11 0
BBX 8 12 2 0
BITMAP
FF
C3
C3
C3
C3
C3
C3
C3
C3
C3
C3
C3
ENDCHAR
STARTCHAR char241
ENCODING 241
SWIDTH 528 0
DWIDTH 11 0
BBX 9 12 1 0
BITMAP
1F80
3180
6180
6180
6180
3180
1F80
0D80
1980
3180
6180
C180
ENDCHAR
STARTCHAR char242
ENCODING 242
SWIDTH 528 0
DWIDTH 11 0
BBX 8 12 2 0
BITMAP
FC
C6
C3
C3
C3
C3
C6
FC
C0
C0
C0
C0
ENDCHAR
STARTCHAR char243
ENCODING 243
SWIDTH 528 0
DWIDTH 11 0
BBX 8 12 2 0
BITMAP
3E
63
C0
C0
C0
C0
C0
C0
C0
C0
63
3E
ENDCHAR
STARTCHAR char244
ENCODING 244
SWIDTH 528 0
DWIDTH 11 0
BBX 10 12 1 0
BITMAP
FFC0
0C00
0C00
0C00
0C00
0C00
0C00
0C00
0C00
0C00
0C00
0C00
ENDCHAR
STARTCHAR char245
ENCODING 245
SWIDTH 528 0
DWIDTH 11 0
BBX 9 12 2 0
BITMAP
C180
C180
6100
6300
3300
3200
1E00
1E00
0C00
0C00
1800
F000
ENDCHAR
STARTCHAR char246
ENCODING 246
SWIDTH 624 0
DWIDTH 13 0
BBX 10 12 2 0
BITMAP
CCC0
CCC0
CCC0
6D80
6D80
3F00
6D80
6D80
6D80
CCC0
CCC0
CCC0
ENDCHAR
STARTCHAR char247
ENCODING 247
SWIDTH 528 0
DWIDTH 11 0
BBX 8 12 2 0
BITMAP
FC
C6
C3
C3
C6
FC
C6
C3
C3
C3
C6
FC
ENDCHAR
STARTCHAR char248
ENCODING 248
SWIDTH 528 0
DWIDTH 11 0
BBX 8 12 2 0
BITMAP
C0
C0
C0
C0
FC
C6
C3
C3
C3
C3
C6
FC
ENDCHAR
STARTCHAR char249
ENCODING 249
SWIDTH 672 0
DWIDTH 14 0
BBX 11 12 2 0
BITMAP
C060
C060
C060
C060
F860
CC60
C660
C660
C660
C660
CC60
F860
ENDCHAR
STARTCHAR char250
ENCODING 250
SWIDTH 528 0
DWIDTH 11 0
BBX 8 12 2 0
BITMAP
7C
C6
03
03
06
3C
06
03
03
03
C6
7C
ENDCHAR
STARTCHAR char251
ENCODING 251
SWIDTH 624 0
DWIDTH 13 0
BBX 10 12 2 0
BITMAP
CCC0
CCC0
CCC0
CCC0
CCC0
CCC0
CCC0
CCC0
CCC0
CCC0
CCC0
FFC0
ENDCHAR
STARTCHAR char252
ENCODING 252
SWIDTH 528 0
DWIDTH 11 0
BBX 8 12 2 0
BITMAP
7C
C6
03
03
03
3F
03
03
03
03
C6
7C
ENDCHAR
STARTCHAR char253
ENCODING 253
SWIDTH 624 0
DWIDTH 13 0
BBX 11 14 2 -2
BITMAP
CCC0
CCC0
CCC0
CCC0
CCC0
CCC0
CCC0
CCC0
CCC0
CCC0
CCC0
FFE0
0060
0060
ENDCHAR
STARTCHAR char254
ENCODING 254
SWIDTH 528 0
DWIDTH 11 0
BBX 8 12 2 0
BITMAP
C3
C3
C3
C3
C3
C3
7F
03
03
03
03
03
ENDCHAR
STARTCHAR char255
ENCODING 255
SWIDTH 576 0
DWIDTH 12 0
BBX 10 12 1 0
BITMAP
F000
3000
3000
3000
3F00
3180
30C0
30C0
30C0
30C0
3180
3F00
ENDCHAR
ENDFONT
