STARTFONT 2.1
COMMENT 
COMMENT rusclean13.bdf, Maxim Markevitch <mmarkevi@ESOC1.BITNET>, 13 Aug 1993.
COMMENT Public domain. 
COMMENT  
COMMENT Latin part of this font is taken from X font 
COMMENT    "-schumacher-clean-bold-r-normal--13-130-75-75-c-80-iso8859-1"
COMMENT (by der Mouse's getbdf); cyrillic letter bitmaps are taken (with
COMMENT minor fixes) from the 
COMMENT Sergei Vakulenko's font sq01.bdf (which itself is made from MS Windows 
COMMENT font sq01.fnt by fnt2bdf converter). 
COMMENT 
FONT rusclean13
SIZE 13 75 75
FONTBOUNDINGBOX 8 13 0 -2
STARTPROPERTIES 25
FONT_ASCENT 11
FONT_DESCENT 2
DEFAULT_CHAR 32
FONTNAME_REGISTRY ""
FOUNDRY "Schumacher"
FAMILY_NAME "Clean"
WEIGHT_NAME "Bold"
SLANT "R"
SETWIDTH_NAME "Normal"
ADD_STYLE_NAME ""
PIXEL_SIZE 13
POINT_SIZE 130
RESOLUTION_X 75
RESOLUTION_Y 75
SPACING "C"
AVERAGE_WIDTH 80
CHARSET_REGISTRY "ISO8859"
CHARSET_ENCODING "1"
COPYRIGHT "Latin character bitmaps: Copyright 1989 Dale Schumacher."
FONT "-SchumacherRus-Clean-Bold-R-Normal--13-130-75-75-C-80-KOI8-1"
NOTICE "Public domain font, by Serge Vakulenko, Maxim Markevitch"
WEIGHT 10
RESOLUTION 103
X_HEIGHT 11
QUAD_WIDTH 8
ENDPROPERTIES
CHARS 192
STARTCHAR 0
ENCODING 0
SWIDTH 591 0
DWIDTH 8 0
BBX 8 13 0 -2
BITMAP
81
80
80
80
80
80
80
80
80
80
80
80
ff
ENDCHAR
STARTCHAR 1
ENCODING 1
SWIDTH 591 0
DWIDTH 8 0
BBX 7 9 1 0
BITMAP
10
28
44
ee
28
28
28
28
38
ENDCHAR
STARTCHAR 2
ENCODING 2
SWIDTH 591 0
DWIDTH 8 0
BBX 7 9 1 0
BITMAP
38
28
28
28
28
ee
44
28
10
ENDCHAR
STARTCHAR 3
ENCODING 3
SWIDTH 591 0
DWIDTH 8 0
BBX 7 7 1 1
BITMAP
10
18
f4
82
f4
18
10
ENDCHAR
STARTCHAR 4
ENCODING 4
SWIDTH 591 0
DWIDTH 8 0
BBX 7 7 1 1
BITMAP
10
30
5e
82
5e
30
10
ENDCHAR
STARTCHAR 5
ENCODING 5
SWIDTH 591 0
DWIDTH 8 0
BBX 8 8 0 0
BITMAP
a5
66
e7
18
18
e7
66
a5
ENDCHAR
STARTCHAR 6
ENCODING 6
SWIDTH 591 0
DWIDTH 8 0
BBX 8 8 0 0
BITMAP
f8
88
88
88
f9
05
03
0f
ENDCHAR
STARTCHAR 7
ENCODING 7
SWIDTH 591 0
DWIDTH 8 0
BBX 8 8 0 0
BITMAP
e7
c3
a5
18
18
a5
c3
e7
ENDCHAR
STARTCHAR 8
ENCODING 8
SWIDTH 591 0
DWIDTH 8 0
BBX 7 12 1 -2
BITMAP
fe
1e
ce
ae
c0
a6
c8
04
e2
ec
e0
fe
ENDCHAR
STARTCHAR 9
ENCODING 9
SWIDTH 591 0
DWIDTH 8 0
BBX 7 12 1 -2
BITMAP
fe
0e
ae
ae
e0
ae
a4
04
f4
f4
f0
fe
ENDCHAR
STARTCHAR 10
ENCODING 10
SWIDTH 591 0
DWIDTH 8 0
BBX 7 12 1 -2
BITMAP
fe
3e
be
be
a0
8e
e8
0c
e8
ea
e2
fe
ENDCHAR
STARTCHAR 11
ENCODING 11
SWIDTH 591 0
DWIDTH 8 0
BBX 7 12 1 -2
BITMAP
fe
0e
ae
ae
a0
4e
44
14
f4
f4
f0
fe
ENDCHAR
STARTCHAR 12
ENCODING 12
SWIDTH 591 0
DWIDTH 8 0
BBX 7 12 1 -2
BITMAP
fe
0e
ee
8e
c0
8e
a8
2c
e8
ea
e2
fe
ENDCHAR
STARTCHAR 13
ENCODING 13
SWIDTH 591 0
DWIDTH 8 0
BBX 7 12 1 -2
BITMAP
fe
0e
6e
8e
80
8c
6a
0c
ea
ea
e0
fe
ENDCHAR
STARTCHAR 14
ENCODING 14
SWIDTH 591 0
DWIDTH 8 0
BBX 7 12 1 -1
BITMAP
0a
0a
0a
0a
0a
0a
1a
1a
1a
32
f2
e2
ENDCHAR
STARTCHAR 15
ENCODING 15
SWIDTH 591 0
DWIDTH 8 0
BBX 7 12 0 -1
BITMAP
a0
a0
a0
a0
a0
a0
b0
b0
b0
98
9e
8e
ENDCHAR
STARTCHAR 16
ENCODING 16
SWIDTH 591 0
DWIDTH 8 0
BBX 6 7 1 3
BITMAP
78
cc
cc
00
cc
cc
78
ENDCHAR
STARTCHAR 17
ENCODING 17
SWIDTH 591 0
DWIDTH 8 0
BBX 2 7 5 3
BITMAP
c0
c0
c0
00
c0
c0
c0
ENDCHAR
STARTCHAR 18
ENCODING 18
SWIDTH 591 0
DWIDTH 8 0
BBX 6 7 1 3
BITMAP
78
0c
0c
78
c0
c0
78
ENDCHAR
STARTCHAR 19
ENCODING 19
SWIDTH 591 0
DWIDTH 8 0
BBX 5 7 2 3
BITMAP
f0
18
18
f0
18
18
f0
ENDCHAR
STARTCHAR 20
ENCODING 20
SWIDTH 591 0
DWIDTH 8 0
BBX 6 7 1 3
BITMAP
cc
cc
cc
78
0c
0c
0c
ENDCHAR
STARTCHAR 21
ENCODING 21
SWIDTH 591 0
DWIDTH 8 0
BBX 6 7 1 3
BITMAP
78
c0
c0
78
0c
0c
78
ENDCHAR
STARTCHAR 22
ENCODING 22
SWIDTH 591 0
DWIDTH 8 0
BBX 6 7 1 3
BITMAP
78
c0
c0
78
cc
cc
78
ENDCHAR
STARTCHAR 23
ENCODING 23
SWIDTH 591 0
DWIDTH 8 0
BBX 5 7 2 3
BITMAP
f0
18
18
00
18
18
18
ENDCHAR
STARTCHAR 24
ENCODING 24
SWIDTH 591 0
DWIDTH 8 0
BBX 6 7 1 3
BITMAP
78
cc
cc
78
cc
cc
78
ENDCHAR
STARTCHAR 25
ENCODING 25
SWIDTH 591 0
DWIDTH 8 0
BBX 6 7 1 3
BITMAP
78
cc
cc
78
0c
0c
78
ENDCHAR
STARTCHAR 26
ENCODING 26
SWIDTH 591 0
DWIDTH 8 0
BBX 7 7 1 0
BITMAP
7c
06
06
fe
c6
c6
7c
ENDCHAR
STARTCHAR 27
ENCODING 27
SWIDTH 591 0
DWIDTH 8 0
BBX 7 12 1 -2
BITMAP
fe
0e
ee
8e
e0
86
e8
08
e8
e6
f0
fe
ENDCHAR
STARTCHAR 28
ENCODING 28
SWIDTH 591 0
DWIDTH 8 0
BBX 5 7 3 -2
BITMAP
38
78
f8
c0
c0
80
f0
ENDCHAR
STARTCHAR 29
ENCODING 29
SWIDTH 591 0
DWIDTH 8 0
BBX 6 7 0 -2
BITMAP
f0
f8
ec
04
04
04
3c
ENDCHAR
STARTCHAR 30
ENCODING 30
SWIDTH 591 0
DWIDTH 8 0
BBX 6 7 2 4
BITMAP
2c
34
18
1c
b8
e4
e0
ENDCHAR
STARTCHAR 31
ENCODING 31
SWIDTH 591 0
DWIDTH 8 0
BBX 5 6 0 5
BITMAP
28
d8
28
d0
10
e0
ENDCHAR
STARTCHAR 32
ENCODING 32
SWIDTH 591 0
DWIDTH 8 0
BBX 0 0 0 0
BITMAP
ENDCHAR
STARTCHAR 33
ENCODING 33
SWIDTH 591 0
DWIDTH 8 0
BBX 2 10 3 0
BITMAP
c0
c0
c0
c0
c0
c0
c0
00
c0
c0
ENDCHAR
STARTCHAR 34
ENCODING 34
SWIDTH 591 0
DWIDTH 8 0
BBX 3 3 3 6
BITMAP
a0
a0
a0
ENDCHAR
STARTCHAR 35
ENCODING 35
SWIDTH 591 0
DWIDTH 8 0
BBX 6 11 1 -1
BITMAP
48
48
48
fc
48
48
48
fc
48
48
48
ENDCHAR
STARTCHAR 36
ENCODING 36
SWIDTH 591 0
DWIDTH 8 0
BBX 5 12 2 -1
BITMAP
20
70
a8
a0
a0
60
30
28
28
a8
70
20
ENDCHAR
STARTCHAR 37
ENCODING 37
SWIDTH 591 0
DWIDTH 8 0
BBX 7 9 1 0
BITMAP
40
a0
a4
48
10
24
4a
0a
04
ENDCHAR
STARTCHAR 38
ENCODING 38
SWIDTH 591 0
DWIDTH 8 0
BBX 7 9 1 0
BITMAP
78
80
80
40
60
92
8c
8c
72
ENDCHAR
STARTCHAR 39
ENCODING 39
SWIDTH 591 0
DWIDTH 8 0
BBX 3 3 3 6
BITMAP
60
40
80
ENDCHAR
STARTCHAR 40
ENCODING 40
SWIDTH 591 0
DWIDTH 8 0
BBX 4 11 3 -1
BITMAP
30
60
60
c0
c0
c0
c0
c0
60
60
30
ENDCHAR
STARTCHAR 41
ENCODING 41
SWIDTH 591 0
DWIDTH 8 0
BBX 4 11 2 -1
BITMAP
c0
60
60
30
30
30
30
30
60
60
c0
ENDCHAR
STARTCHAR 42
ENCODING 42
SWIDTH 591 0
DWIDTH 8 0
BBX 7 7 1 1
BITMAP
10
10
d6
38
10
28
44
ENDCHAR
STARTCHAR 43
ENCODING 43
SWIDTH 591 0
DWIDTH 8 0
BBX 7 7 1 1
BITMAP
10
10
10
fe
10
10
10
ENDCHAR
STARTCHAR 44
ENCODING 44
SWIDTH 591 0
DWIDTH 8 0
BBX 3 4 2 -2
BITMAP
60
60
40
80
ENDCHAR
STARTCHAR 45
ENCODING 45
SWIDTH 591 0
DWIDTH 8 0
BBX 7 1 1 4
BITMAP
fe
ENDCHAR
STARTCHAR 46
ENCODING 46
SWIDTH 591 0
DWIDTH 8 0
BBX 2 2 3 0
BITMAP
c0
c0
ENDCHAR
STARTCHAR 47
ENCODING 47
SWIDTH 591 0
DWIDTH 8 0
BBX 6 12 1 -1
BITMAP
04
04
08
08
10
10
20
20
40
40
80
80
ENDCHAR
STARTCHAR 48
ENCODING 48
SWIDTH 591 0
DWIDTH 8 0
BBX 6 10 1 0
BITMAP
78
cc
cc
cc
cc
cc
cc
cc
cc
78
ENDCHAR
STARTCHAR 49
ENCODING 49
SWIDTH 591 0
DWIDTH 8 0
BBX 3 10 3 0
BITMAP
60
e0
60
60
60
60
60
60
60
60
ENDCHAR
STARTCHAR 50
ENCODING 50
SWIDTH 591 0
DWIDTH 8 0
BBX 6 10 1 0
BITMAP
78
cc
0c
0c
18
30
60
c0
c0
fc
ENDCHAR
STARTCHAR 51
ENCODING 51
SWIDTH 591 0
DWIDTH 8 0
BBX 6 10 1 0
BITMAP
78
cc
0c
0c
38
0c
0c
0c
cc
78
ENDCHAR
STARTCHAR 52
ENCODING 52
SWIDTH 591 0
DWIDTH 8 0
BBX 6 10 1 0
BITMAP
18
18
38
38
58
58
98
fc
18
3c
ENDCHAR
STARTCHAR 53
ENCODING 53
SWIDTH 591 0
DWIDTH 8 0
BBX 6 10 1 0
BITMAP
fc
c0
c0
c0
f8
0c
0c
0c
cc
78
ENDCHAR
STARTCHAR 54
ENCODING 54
SWIDTH 591 0
DWIDTH 8 0
BBX 6 10 1 0
BITMAP
38
60
c0
c0
f8
cc
cc
cc
cc
78
ENDCHAR
STARTCHAR 55
ENCODING 55
SWIDTH 591 0
DWIDTH 8 0
BBX 6 10 1 0
BITMAP
fc
cc
0c
0c
18
18
30
30
60
60
ENDCHAR
STARTCHAR 56
ENCODING 56
SWIDTH 591 0
DWIDTH 8 0
BBX 6 10 1 0
BITMAP
78
cc
cc
cc
78
cc
cc
cc
cc
78
ENDCHAR
STARTCHAR 57
ENCODING 57
SWIDTH 591 0
DWIDTH 8 0
BBX 6 10 1 0
BITMAP
78
cc
cc
cc
cc
7c
0c
0c
18
70
ENDCHAR
STARTCHAR 58
ENCODING 58
SWIDTH 591 0
DWIDTH 8 0
BBX 2 7 3 0
BITMAP
c0
c0
00
00
00
c0
c0
ENDCHAR
STARTCHAR 59
ENCODING 59
SWIDTH 591 0
DWIDTH 8 0
BBX 3 9 2 -2
BITMAP
60
60
00
00
00
60
60
40
80
ENDCHAR
STARTCHAR 60
ENCODING 60
SWIDTH 591 0
DWIDTH 8 0
BBX 7 5 1 2
BITMAP
0e
38
e0
38
0e
ENDCHAR
STARTCHAR 61
ENCODING 61
SWIDTH 591 0
DWIDTH 8 0
BBX 7 4 1 2
BITMAP
fe
00
00
fe
ENDCHAR
STARTCHAR 62
ENCODING 62
SWIDTH 591 0
DWIDTH 8 0
BBX 7 5 1 2
BITMAP
e0
38
0e
38
e0
ENDCHAR
STARTCHAR 63
ENCODING 63
SWIDTH 591 0
DWIDTH 8 0
BBX 6 10 1 0
BITMAP
78
cc
cc
0c
18
30
30
00
30
30
ENDCHAR
STARTCHAR 64
ENCODING 64
SWIDTH 591 0
DWIDTH 8 0
BBX 7 8 1 0
BITMAP
38
44
92
aa
aa
94
40
3c
ENDCHAR
STARTCHAR 65
ENCODING 65
SWIDTH 591 0
DWIDTH 8 0
BBX 8 9 0 0
BITMAP
18
18
3c
34
34
7e
62
62
e3
ENDCHAR
STARTCHAR 66
ENCODING 66
SWIDTH 591 0
DWIDTH 8 0
BBX 7 9 1 0
BITMAP
fc
c6
c6
c6
fc
c6
c6
c6
fc
ENDCHAR
STARTCHAR 67
ENCODING 67
SWIDTH 591 0
DWIDTH 8 0
BBX 7 9 1 0
BITMAP
3c
66
c0
c0
c0
c0
c0
66
3c
ENDCHAR
STARTCHAR 68
ENCODING 68
SWIDTH 591 0
DWIDTH 8 0
BBX 7 9 1 0
BITMAP
f8
cc
c6
c6
c6
c6
c6
cc
f8
ENDCHAR
STARTCHAR 69
ENCODING 69
SWIDTH 591 0
DWIDTH 8 0
BBX 7 9 1 0
BITMAP
fe
c0
c0
c0
f8
c0
c0
c0
fe
ENDCHAR
STARTCHAR 70
ENCODING 70
SWIDTH 591 0
DWIDTH 8 0
BBX 7 9 1 0
BITMAP
fe
c0
c0
c0
f8
c0
c0
c0
c0
ENDCHAR
STARTCHAR 71
ENCODING 71
SWIDTH 591 0
DWIDTH 8 0
BBX 7 9 1 0
BITMAP
3c
66
c0
c0
c0
ce
c6
66
3e
ENDCHAR
STARTCHAR 72
ENCODING 72
SWIDTH 591 0
DWIDTH 8 0
BBX 7 9 1 0
BITMAP
c6
c6
c6
c6
fe
c6
c6
c6
c6
ENDCHAR
STARTCHAR 73
ENCODING 73
SWIDTH 591 0
DWIDTH 8 0
BBX 6 9 1 0
BITMAP
fc
30
30
30
30
30
30
30
fc
ENDCHAR
STARTCHAR 74
ENCODING 74
SWIDTH 591 0
DWIDTH 8 0
BBX 6 9 1 0
BITMAP
3c
0c
0c
0c
0c
0c
cc
cc
78
ENDCHAR
STARTCHAR 75
ENCODING 75
SWIDTH 591 0
DWIDTH 8 0
BBX 7 9 1 0
BITMAP
c6
cc
d8
f0
e0
f0
d8
cc
c6
ENDCHAR
STARTCHAR 76
ENCODING 76
SWIDTH 591 0
DWIDTH 8 0
BBX 6 9 1 0
BITMAP
c0
c0
c0
c0
c0
c0
c0
c0
fc
ENDCHAR
STARTCHAR 77
ENCODING 77
SWIDTH 591 0
DWIDTH 8 0
BBX 7 9 1 0
BITMAP
c6
c6
ee
ee
d6
d6
c6
c6
c6
ENDCHAR
STARTCHAR 78
ENCODING 78
SWIDTH 591 0
DWIDTH 8 0
BBX 7 9 1 0
BITMAP
c6
c6
e6
e6
d6
ce
ce
c6
c6
ENDCHAR
STARTCHAR 79
ENCODING 79
SWIDTH 591 0
DWIDTH 8 0
BBX 7 9 1 0
BITMAP
38
6c
c6
c6
c6
c6
c6
6c
38
ENDCHAR
STARTCHAR 80
ENCODING 80
SWIDTH 591 0
DWIDTH 8 0
BBX 7 9 1 0
BITMAP
fc
c6
c6
c6
fc
c0
c0
c0
c0
ENDCHAR
STARTCHAR 81
ENCODING 81
SWIDTH 591 0
DWIDTH 8 0
BBX 7 11 1 -2
BITMAP
38
6c
c6
c6
c6
c6
c6
6c
38
5a
0c
ENDCHAR
STARTCHAR 82
ENCODING 82
SWIDTH 591 0
DWIDTH 8 0
BBX 7 9 1 0
BITMAP
fc
c6
c6
c6
fc
d8
cc
c6
c6
ENDCHAR
STARTCHAR 83
ENCODING 83
SWIDTH 591 0
DWIDTH 8 0
BBX 7 9 1 0
BITMAP
7c
c6
c0
c0
7c
06
06
c6
7c
ENDCHAR
STARTCHAR 84
ENCODING 84
SWIDTH 591 0
DWIDTH 8 0
BBX 6 9 1 0
BITMAP
fc
30
30
30
30
30
30
30
30
ENDCHAR
STARTCHAR 85
ENCODING 85
SWIDTH 591 0
DWIDTH 8 0
BBX 7 9 1 0
BITMAP
c6
c6
c6
c6
c6
c6
c6
c6
7c
ENDCHAR
STARTCHAR 86
ENCODING 86
SWIDTH 591 0
DWIDTH 8 0
BBX 7 9 1 0
BITMAP
c6
c6
c6
c6
6c
6c
6c
38
38
ENDCHAR
STARTCHAR 87
ENCODING 87
SWIDTH 591 0
DWIDTH 8 0
BBX 7 9 1 0
BITMAP
c6
c6
c6
d6
d6
ee
ee
c6
c6
ENDCHAR
STARTCHAR 88
ENCODING 88
SWIDTH 591 0
DWIDTH 8 0
BBX 6 9 1 0
BITMAP
cc
cc
cc
78
30
78
cc
cc
cc
ENDCHAR
STARTCHAR 89
ENCODING 89
SWIDTH 591 0
DWIDTH 8 0
BBX 6 9 1 0
BITMAP
cc
cc
cc
78
30
30
30
30
30
ENDCHAR
STARTCHAR 90
ENCODING 90
SWIDTH 591 0
DWIDTH 8 0
BBX 6 9 1 0
BITMAP
fc
0c
0c
18
30
60
c0
c0
fc
ENDCHAR
STARTCHAR 91
ENCODING 91
SWIDTH 591 0
DWIDTH 8 0
BBX 4 11 3 -1
BITMAP
f0
c0
c0
c0
c0
c0
c0
c0
c0
c0
f0
ENDCHAR
STARTCHAR 92
ENCODING 92
SWIDTH 591 0
DWIDTH 8 0
BBX 6 12 1 -1
BITMAP
80
80
40
40
20
20
10
10
08
08
04
04
ENDCHAR
STARTCHAR 93
ENCODING 93
SWIDTH 591 0
DWIDTH 8 0
BBX 4 11 2 -1
BITMAP
f0
30
30
30
30
30
30
30
30
30
f0
ENDCHAR
STARTCHAR 94
ENCODING 94
SWIDTH 591 0
DWIDTH 8 0
BBX 6 3 1 7
BITMAP
30
68
c4
ENDCHAR
STARTCHAR 95
ENCODING 95
SWIDTH 591 0
DWIDTH 8 0
BBX 7 1 1 -2
BITMAP
fe
ENDCHAR
STARTCHAR 96
ENCODING 96
SWIDTH 591 0
DWIDTH 8 0
BBX 3 3 3 6
BITMAP
c0
40
20
ENDCHAR
STARTCHAR 97
ENCODING 97
SWIDTH 591 0
DWIDTH 8 0
BBX 7 7 1 0
BITMAP
7e
c6
c6
c6
c6
ce
76
ENDCHAR
STARTCHAR 98
ENCODING 98
SWIDTH 591 0
DWIDTH 8 0
BBX 7 10 1 0
BITMAP
c0
c0
c0
fc
c6
c6
c6
c6
c6
fc
ENDCHAR
STARTCHAR 99
ENCODING 99
SWIDTH 591 0
DWIDTH 8 0
BBX 6 7 1 0
BITMAP
7c
c0
c0
c0
c0
c0
7c
ENDCHAR
STARTCHAR 100
ENCODING 100
SWIDTH 591 0
DWIDTH 8 0
BBX 7 10 1 0
BITMAP
06
06
06
7e
c6
c6
c6
c6
c6
7e
ENDCHAR
STARTCHAR 101
ENCODING 101
SWIDTH 591 0
DWIDTH 8 0
BBX 7 7 1 0
BITMAP
7c
c6
c6
fe
c0
c0
7c
ENDCHAR
STARTCHAR 102
ENCODING 102
SWIDTH 591 0
DWIDTH 8 0
BBX 6 11 2 -1
BITMAP
3c
60
60
f8
60
60
60
60
60
60
40
ENDCHAR
STARTCHAR 103
ENCODING 103
SWIDTH 591 0
DWIDTH 8 0
BBX 7 9 1 -2
BITMAP
7e
c6
c6
c6
c6
c6
7e
06
7c
ENDCHAR
STARTCHAR 104
ENCODING 104
SWIDTH 591 0
DWIDTH 8 0
BBX 7 10 1 0
BITMAP
c0
c0
c0
fc
c6
c6
c6
c6
c6
c6
ENDCHAR
STARTCHAR 105
ENCODING 105
SWIDTH 591 0
DWIDTH 8 0
BBX 6 10 1 0
BITMAP
30
30
00
f0
30
30
30
30
30
fc
ENDCHAR
STARTCHAR 106
ENCODING 106
SWIDTH 591 0
DWIDTH 8 0
BBX 5 12 2 -2
BITMAP
18
18
00
78
18
18
18
18
18
18
18
f0
ENDCHAR
STARTCHAR 107
ENCODING 107
SWIDTH 591 0
DWIDTH 8 0
BBX 7 10 1 0
BITMAP
c0
c0
c0
c6
cc
d8
f0
d8
cc
c6
ENDCHAR
STARTCHAR 108
ENCODING 108
SWIDTH 591 0
DWIDTH 8 0
BBX 4 10 2 0
BITMAP
e0
60
60
60
60
60
60
60
60
f0
ENDCHAR
STARTCHAR 109
ENCODING 109
SWIDTH 591 0
DWIDTH 8 0
BBX 7 7 1 0
BITMAP
ec
d6
d6
d6
d6
c6
c6
ENDCHAR
STARTCHAR 110
ENCODING 110
SWIDTH 591 0
DWIDTH 8 0
BBX 7 7 1 0
BITMAP
dc
e6
c6
c6
c6
c6
c6
ENDCHAR
STARTCHAR 111
ENCODING 111
SWIDTH 591 0
DWIDTH 8 0
BBX 7 7 1 0
BITMAP
7c
c6
c6
c6
c6
c6
7c
ENDCHAR
STARTCHAR 112
ENCODING 112
SWIDTH 591 0
DWIDTH 8 0
BBX 7 9 1 -2
BITMAP
fc
c6
c6
c6
c6
c6
fc
c0
c0
ENDCHAR
STARTCHAR 113
ENCODING 113
SWIDTH 591 0
DWIDTH 8 0
BBX 7 9 1 -2
BITMAP
7e
c6
c6
c6
c6
c6
7e
06
06
ENDCHAR
STARTCHAR 114
ENCODING 114
SWIDTH 591 0
DWIDTH 8 0
BBX 6 7 1 0
BITMAP
dc
e0
c0
c0
c0
c0
c0
ENDCHAR
STARTCHAR 115
ENCODING 115
SWIDTH 591 0
DWIDTH 8 0
BBX 6 7 1 0
BITMAP
7c
c0
c0
78
0c
0c
f8
ENDCHAR
STARTCHAR 116
ENCODING 116
SWIDTH 591 0
DWIDTH 8 0
BBX 6 10 1 0
BITMAP
30
30
30
fc
30
30
30
30
30
1c
ENDCHAR
STARTCHAR 117
ENCODING 117
SWIDTH 591 0
DWIDTH 8 0
BBX 7 7 1 0
BITMAP
c6
c6
c6
c6
c6
ce
76
ENDCHAR
STARTCHAR 118
ENCODING 118
SWIDTH 591 0
DWIDTH 8 0
BBX 7 7 1 0
BITMAP
c6
c6
c6
6c
6c
38
38
ENDCHAR
STARTCHAR 119
ENCODING 119
SWIDTH 591 0
DWIDTH 8 0
BBX 7 7 1 0
BITMAP
c6
c6
d6
d6
d6
d6
6c
ENDCHAR
STARTCHAR 120
ENCODING 120
SWIDTH 591 0
DWIDTH 8 0
BBX 6 7 1 0
BITMAP
cc
cc
78
30
78
cc
cc
ENDCHAR
STARTCHAR 121
ENCODING 121
SWIDTH 591 0
DWIDTH 8 0
BBX 7 9 1 -2
BITMAP
c6
c6
c6
c6
c6
c6
7e
06
7c
ENDCHAR
STARTCHAR 122
ENCODING 122
SWIDTH 591 0
DWIDTH 8 0
BBX 6 7 1 0
BITMAP
fc
0c
18
30
60
c0
fc
ENDCHAR
STARTCHAR 123
ENCODING 123
SWIDTH 591 0
DWIDTH 8 0
BBX 4 11 3 -1
BITMAP
30
60
60
60
60
c0
60
60
60
60
30
ENDCHAR
STARTCHAR 124
ENCODING 124
SWIDTH 591 0
DWIDTH 8 0
BBX 1 11 4 -1
BITMAP
80
80
80
80
80
80
80
80
80
80
80
ENDCHAR
STARTCHAR 125
ENCODING 125
SWIDTH 591 0
DWIDTH 8 0
BBX 4 11 2 -1
BITMAP
c0
60
60
60
60
30
60
60
60
60
c0
ENDCHAR
STARTCHAR 126
ENCODING 126
SWIDTH 591 0
DWIDTH 8 0
BBX 7 3 1 7
BITMAP
62
92
8c
ENDCHAR
STARTCHAR 127
ENCODING 127
SWIDTH 591 0
DWIDTH 8 0
BBX 8 8 0 0
BITMAP
18
18
34
34
62
62
c1
ff
ENDCHAR
STARTCHAR cyr-a
ENCODING 193
SWIDTH 533 0
DWIDTH 8 0
BBX 8 13 0 -2
BITMAP
00
00
00
00
3c
06
06
3e
66
66
3e
00
00
ENDCHAR
STARTCHAR cyr-be
ENCODING 194
SWIDTH 533 0
DWIDTH 8 0
BBX 8 13 0 -2
BITMAP
00
00
3e
60
7c
66
66
66
66
66
3c
00
00
ENDCHAR
STARTCHAR cyr-ve
ENCODING 215
SWIDTH 533 0
DWIDTH 8 0
BBX 8 13 0 -2
BITMAP
00
00
00
00
7c
66
66
7c
66
66
7c
00
00
ENDCHAR
STARTCHAR cyr-ghe
ENCODING 199
SWIDTH 533 0
DWIDTH 8 0
BBX 8 13 0 -2
BITMAP
00
00
00
00
7e
60
60
60
60
60
60
00
00
ENDCHAR
STARTCHAR cyr-de
ENCODING 196
SWIDTH 533 0
DWIDTH 8 0
BBX 8 13 0 -2
BITMAP
00
00
00
00
3e
66
66
66
66
66
ff
c3
00
ENDCHAR
STARTCHAR cyr-ie
ENCODING 197
SWIDTH 533 0
DWIDTH 8 0
BBX 8 13 0 -2
BITMAP
00
00
00
00
3c
66
66
7e
60
60
3c
00
00
ENDCHAR
STARTCHAR cyr-zhe
ENCODING 214
SWIDTH 533 0
DWIDTH 8 0
BBX 8 13 0 -2
BITMAP
00
00
00
00
6b
6b
6b
3e
6b
6b
6b
00
00
ENDCHAR
STARTCHAR cyr-z
ENCODING 218
SWIDTH 533 0
DWIDTH 8 0
BBX 8 13 0 -2
BITMAP
00
00
00
00
3c
66
06
1c
06
66
3c
00
00
ENDCHAR
STARTCHAR cyr-i
ENCODING 201
SWIDTH 533 0
DWIDTH 8 0
BBX 8 13 0 -2
BITMAP
00
00
00
00
63
63
67
6f
7b
73
63
00
00
ENDCHAR
STARTCHAR cyr-i-short
ENCODING 202
SWIDTH 533 0
DWIDTH 8 0
BBX 8 13 0 -2
BITMAP
00
00
1c
00
63
63
67
6f
7b
73
63
00
00
ENDCHAR
STARTCHAR cyr-ka
ENCODING 203
SWIDTH 533 0
DWIDTH 8 0
BBX 8 13 0 -2
BITMAP
00
00
00
00
66
66
6c
78
6c
66
66
00
00
ENDCHAR
STARTCHAR cyr-el
ENCODING 204
SWIDTH 533 0
DWIDTH 8 0
BBX 8 13 0 -2
BITMAP
00
00
00
00
1f
33
33
33
33
33
63
00
00
ENDCHAR
STARTCHAR cyr-em
ENCODING 205
SWIDTH 533 0
DWIDTH 8 0
BBX 8 13 0 -2
BITMAP
00
00
00
00
63
77
7f
6b
6b
63
63
00
00
ENDCHAR
STARTCHAR cyr-en
ENCODING 206
SWIDTH 533 0
DWIDTH 8 0
BBX 8 13 0 -2
BITMAP
00
00
00
00
66
66
66
7e
66
66
66
00
00
ENDCHAR
STARTCHAR cyr-o
ENCODING 207
SWIDTH 533 0
DWIDTH 8 0
BBX 8 13 0 -2
BITMAP
00
00
00
00
3c
66
66
66
66
66
3c
00
00
ENDCHAR
STARTCHAR cyr-pe
ENCODING 208
SWIDTH 533 0
DWIDTH 8 0
BBX 8 13 0 -2
BITMAP
00
00
00
00
7e
66
66
66
66
66
66
00
00
ENDCHAR
STARTCHAR cyr-er
ENCODING 210
SWIDTH 533 0
DWIDTH 8 0
BBX 8 13 0 -2
BITMAP
00
00
00
00
7c
66
66
66
66
66
7c
60
60
ENDCHAR
STARTCHAR cyr-es
ENCODING 211
SWIDTH 533 0
DWIDTH 8 0
BBX 8 13 0 -2
BITMAP
00
00
00
00
3c
66
60
60
60
66
3c
00
00
ENDCHAR
STARTCHAR cyr-te
ENCODING 212
SWIDTH 533 0
DWIDTH 8 0
BBX 8 13 0 -2
BITMAP
00
00
00
00
7e
18
18
18
18
18
18
00
00
ENDCHAR
STARTCHAR cyr-u
ENCODING 213
SWIDTH 533 0
DWIDTH 8 0
BBX 8 13 0 -2
BITMAP
00
00
00
00
66
66
66
66
66
3e
06
0c
78
ENDCHAR
STARTCHAR cyr-ef
ENCODING 198
SWIDTH 533 0
DWIDTH 8 0
BBX 8 13 0 -2
BITMAP
00
00
00
08
3e
6b
6b
6b
6b
6b
3e
08
08
ENDCHAR
STARTCHAR cyr-kha
ENCODING 200
SWIDTH 533 0
DWIDTH 8 0
BBX 8 13 0 -2
BITMAP
00
00
00
00
66
66
3c
18
3c
66
66
00
00
ENDCHAR
STARTCHAR cyr-tse
ENCODING 195
SWIDTH 533 0
DWIDTH 8 0
BBX 8 13 0 -2
BITMAP
00
00
00
00
66
66
66
66
66
66
7f
03
00
ENDCHAR
STARTCHAR cyr-che
ENCODING 222
SWIDTH 533 0
DWIDTH 8 0
BBX 8 13 0 -2
BITMAP
00
00
00
00
66
66
66
66
3e
06
06
00
00
ENDCHAR
STARTCHAR cyr-sha
ENCODING 219
SWIDTH 533 0
DWIDTH 8 0
BBX 8 13 0 -2
BITMAP
00
00
00
00
6b
6b
6b
6b
6b
6b
7f
00
00
ENDCHAR
STARTCHAR cyr-shcha
ENCODING 221
SWIDTH 533 0
DWIDTH 8 0
BBX 8 13 0 -2
BITMAP
00
00
00
00
6b
6b
6b
6b
6b
6b
7f
03
00
ENDCHAR
STARTCHAR cyr-ier
ENCODING 223
SWIDTH 533 0
DWIDTH 8 0
BBX 8 13 0 -2
BITMAP
00
00
00
00
70
30
3e
33
33
33
3e
00
00
ENDCHAR
STARTCHAR cyr-iery
ENCODING 217
SWIDTH 533 0
DWIDTH 8 0
BBX 8 13 0 -2
BITMAP
00
00
00
00
63
63
7b
6d
6d
6d
7b
00
00
ENDCHAR
STARTCHAR cyr-ierik
ENCODING 216
SWIDTH 533 0
DWIDTH 8 0
BBX 8 13 0 -2
BITMAP
00
00
00
00
60
60
7c
66
66
66
7c
00
00
ENDCHAR
STARTCHAR cyr-e-rev
ENCODING 220
SWIDTH 533 0
DWIDTH 8 0
BBX 8 13 0 -2
BITMAP
00
00
00
00
7c
06
06
3e
06
06
7c
00
00
ENDCHAR
STARTCHAR cyr-yu
ENCODING 192
SWIDTH 533 0
DWIDTH 8 0
BBX 8 13 0 -2
BITMAP
00
00
00
00
6e
5b
5b
7b
5b
5b
6e
00
00
ENDCHAR
STARTCHAR cyr-ya
ENCODING 209
SWIDTH 533 0
DWIDTH 8 0
BBX 8 13 0 -2
BITMAP
00
00
00
00
3e
66
66
66
3e
36
66
00
00
ENDCHAR
STARTCHAR cyr-A
ENCODING 225
SWIDTH 533 0
DWIDTH 8 0
BBX 8 13 0 -2
BITMAP
00
00
3c
66
66
66
66
7e
66
66
66
00
00
ENDCHAR
STARTCHAR cyr-Be
ENCODING 226
SWIDTH 533 0
DWIDTH 8 0
BBX 8 13 0 -2
BITMAP
00
00
7c
60
60
7c
66
66
66
66
7c
00
00
ENDCHAR
STARTCHAR cyr-Ve
ENCODING 247
SWIDTH 533 0
DWIDTH 8 0
BBX 8 13 0 -2
BITMAP
00
00
7c
66
66
66
7c
66
66
66
7c
00
00
ENDCHAR
STARTCHAR cyr-Ghe
ENCODING 231
SWIDTH 533 0
DWIDTH 8 0
BBX 8 13 0 -2
BITMAP
00
00
7e
60
60
60
60
60
60
60
60
00
00
ENDCHAR
STARTCHAR cyr-De
ENCODING 228
SWIDTH 533 0
DWIDTH 8 0
BBX 8 13 0 -2
BITMAP
00
00
3e
66
66
66
66
66
66
66
ff
c3
00
ENDCHAR
STARTCHAR cyr-Ie
ENCODING 229
SWIDTH 533 0
DWIDTH 8 0
BBX 8 13 0 -2
BITMAP
00
00
7e
60
60
60
7c
60
60
60
7e
00
00
ENDCHAR
STARTCHAR cyr-Zhe
ENCODING 246
SWIDTH 533 0
DWIDTH 8 0
BBX 8 13 0 -2
BITMAP
00
00
6b
6b
6b
6b
3e
6b
6b
6b
6b
00
00
ENDCHAR
STARTCHAR cyr-Ze
ENCODING 250
SWIDTH 533 0
DWIDTH 8 0
BBX 8 13 0 -2
BITMAP
00
00
3c
66
06
06
1c
06
06
66
3c
00
00
ENDCHAR
STARTCHAR cyr-I
ENCODING 233
SWIDTH 533 0
DWIDTH 8 0
BBX 8 13 0 -2
BITMAP
00
00
63
63
63
63
67
6f
7b
73
63
00
00
ENDCHAR
STARTCHAR cyr-I-short
ENCODING 234
SWIDTH 533 0
DWIDTH 8 0
BBX 8 13 0 -2
BITMAP
00
1c
00
63
63
63
63
67
6f
7b
73
63
00
ENDCHAR
STARTCHAR cyr-Ka
ENCODING 235
SWIDTH 533 0
DWIDTH 8 0
BBX 8 13 0 -2
BITMAP
00
00
66
66
6c
6c
78
6c
6c
66
66
00
00
ENDCHAR
STARTCHAR cyr-El
ENCODING 236
SWIDTH 533 0
DWIDTH 8 0
BBX 8 13 0 -2
BITMAP
00
00
3e
66
66
66
66
66
66
66
c6
00
00
ENDCHAR
STARTCHAR cyr-Em
ENCODING 237
SWIDTH 533 0
DWIDTH 8 0
BBX 8 13 0 -2
BITMAP
00
00
63
63
77
6b
6b
6b
63
63
63
00
00
ENDCHAR
STARTCHAR cyr-En
ENCODING 238
SWIDTH 533 0
DWIDTH 8 0
BBX 8 13 0 -2
BITMAP
00
00
66
66
66
66
7e
66
66
66
66
00
00
ENDCHAR
STARTCHAR cyr-O
ENCODING 239
SWIDTH 533 0
DWIDTH 8 0
BBX 8 13 0 -2
BITMAP
00
00
3c
66
66
66
66
66
66
66
3c
00
00
ENDCHAR
STARTCHAR cyr-Pe
ENCODING 240
SWIDTH 533 0
DWIDTH 8 0
BBX 8 13 0 -2
BITMAP
00
00
7e
66
66
66
66
66
66
66
66
00
00
ENDCHAR
STARTCHAR cyr-Er
ENCODING 242
SWIDTH 533 0
DWIDTH 8 0
BBX 8 13 0 -2
BITMAP
00
00
7c
66
66
66
7c
60
60
60
60
00
00
ENDCHAR
STARTCHAR cyr-Es
ENCODING 243
SWIDTH 533 0
DWIDTH 8 0
BBX 8 13 0 -2
BITMAP
00
00
3c
66
66
60
60
60
66
66
3c
00
00
ENDCHAR
STARTCHAR cyr-Te
ENCODING 244
SWIDTH 533 0
DWIDTH 8 0
BBX 8 13 0 -2
BITMAP
00
00
7e
18
18
18
18
18
18
18
18
00
00
ENDCHAR
STARTCHAR cyr-U
ENCODING 245
SWIDTH 533 0
DWIDTH 8 0
BBX 8 13 0 -2
BITMAP
00
00
66
66
66
66
66
3e
06
06
7c
00
00
ENDCHAR
STARTCHAR cyr-Ef
ENCODING 230
SWIDTH 533 0
DWIDTH 8 0
BBX 8 13 0 -2
BITMAP
00
00
3e
6b
6b
6b
6b
6b
6b
3e
08
00
00
ENDCHAR
STARTCHAR cyr-Kha
ENCODING 232
SWIDTH 533 0
DWIDTH 8 0
BBX 8 13 0 -2
BITMAP
00
00
66
66
34
18
18
2c
66
66
66
00
00
ENDCHAR
STARTCHAR cyr-Tse
ENCODING 227
SWIDTH 533 0
DWIDTH 8 0
BBX 8 13 0 -2
BITMAP
00
00
66
66
66
66
66
66
66
66
7f
03
00
ENDCHAR
STARTCHAR cyr-Che
ENCODING 254
SWIDTH 533 0
DWIDTH 8 0
BBX 8 13 0 -2
BITMAP
00
00
66
66
66
66
66
3e
06
06
06
00
00
ENDCHAR
STARTCHAR cyr-Sha
ENCODING 251
SWIDTH 533 0
DWIDTH 8 0
BBX 8 13 0 -2
BITMAP
00
00
6b
6b
6b
6b
6b
6b
6b
6b
7f
00
00
ENDCHAR
STARTCHAR cyr-Shcha
ENCODING 253
SWIDTH 533 0
DWIDTH 8 0
BBX 8 13 0 -2
BITMAP
00
00
6b
6b
6b
6b
6b
6b
6b
6b
7f
03
00
ENDCHAR
STARTCHAR cyr-Ier
ENCODING 255
SWIDTH 533 0
DWIDTH 8 0
BBX 8 13 0 -2
BITMAP
00
00
70
30
30
3e
33
33
33
33
3e
00
00
ENDCHAR
STARTCHAR cyr-Iery
ENCODING 249
SWIDTH 533 0
DWIDTH 8 0
BBX 8 13 0 -2
BITMAP
00
00
63
63
63
7b
6d
6d
6d
6d
7b
00
00
ENDCHAR
STARTCHAR cyr-Ierik
ENCODING 248
SWIDTH 533 0
DWIDTH 8 0
BBX 8 13 0 -2
BITMAP
00
00
60
60
60
7c
66
66
66
66
7c
00
00
ENDCHAR
STARTCHAR cyr-E-rev
ENCODING 252
SWIDTH 533 0
DWIDTH 8 0
BBX 8 13 0 -2
BITMAP
00
00
7c
06
06
06
3e
06
06
06
7c
00
00
ENDCHAR
STARTCHAR cyr-Yu
ENCODING 224
SWIDTH 533 0
DWIDTH 8 0
BBX 8 13 0 -2
BITMAP
00
00
6e
5b
5b
5b
7b
5b
5b
5b
6e
00
00
ENDCHAR
STARTCHAR cyr-Ya
ENCODING 241
SWIDTH 533 0
DWIDTH 8 0
BBX 8 13 0 -2
BITMAP
00
00
3e
66
66
66
66
3e
36
66
66
00
00
ENDCHAR
ENDFONT
